<svg xmlns="http://www.w3.org/2000/svg" width="120" height="120" fill="none"><g clip-path="url(#a)"><path fill="#7E3AD4" d="M73.13 25.14c0-11.85 0-17.78-3.69-21.46C65.76 0 59.84 0 48 0H25.14C13.29 0 7.36 0 3.68 3.68 0 7.36 0 13.28 0 25.14v22.85c0 11.85 0 17.77 3.68 21.45 3.68 3.69 9.6 3.69 21.46 3.69h47.98v-48Z"/><path fill="#BDDD11" d="M73.13 103.89c0 7.6 0 11.4 2.36 13.75C77.84 120 81.64 120 89.23 120h14.65c7.6 0 11.4 0 13.75-2.36 2.36-2.36 2.36-6.16 2.36-13.75V89.24c0-7.6 0-11.4-2.36-13.75-2.36-2.36-6.16-2.36-13.75-2.36H73.12v30.76Z"/></g><defs><clipPath id="a"><path fill="#fff" d="M0 0h120v120H0z"/></clipPath></defs></svg>
